HIERARCHY
ROOT Hips
{
	OFFSET 0.000000 100.481300 0.000000
	CHANNELS 6 Xposition Yposition Zposition Xrotation Yrotation Zrotation
	JOINT Spine
	{
		OFFSET -0.279200 12.230698 -2.892100
		CHANNELS 3 Xrotation Yrotation Zrotation
		JOINT Spine1
		{
			OFFSET -0.325700 14.269203 -3.374200
			CHANNELS 3 Xrotation Yrotation Zrotation
			JOINT Spine2
			{
				OFFSET -0.372300 16.307602 -0.352600
				CHANNELS 3 Xrotation Yrotation Zrotation
				JOINT Neck
				{
					OFFSET -0.418800 17.814194 8.416900
					CHANNELS 3 Xrotation Yrotation Zrotation
					JOINT Head
					{
						OFFSET 0.000000 7.031097 3.806800
						CHANNELS 3 Xrotation Yrotation Zrotation
						JOINT HeadTop_End
						{
							OFFSET 0.000000 24.646606 12.978600
							CHANNELS 3 Xrotation Yrotation Zrotation
							End Site
							{
								OFFSET 0.000000 27.854965 0.000000
							}
						}
					}
				}
				JOINT LeftShoulder
				{
					OFFSET 16.952999 14.495407 -7.737500
					CHANNELS 3 Xrotation Yrotation Zrotation
					JOINT LeftArm
					{
						OFFSET 9.308998 -2.777710 0.208600
						CHANNELS 3 Xrotation Yrotation Zrotation
						JOINT LeftForeArm
						{
							OFFSET 29.972298 0.000000 0.000000
							CHANNELS 3 Xrotation Yrotation Zrotation
							JOINT LeftHand
							{
								OFFSET 26.026505 0.000000 0.000000
								CHANNELS 3 Xrotation Yrotation Zrotation
								JOINT LeftHandThumb1
								{
									OFFSET 12.240501 -7.147949 9.207150
									CHANNELS 3 Xrotation Yrotation Zrotation
									JOINT LeftHandThumb2
									{
										OFFSET 4.138618 -2.389435 2.389433
										CHANNELS 3 Xrotation Yrotation Zrotation
										JOINT LeftHandThumb3
										{
											OFFSET 2.726913 -1.574387 1.574386
											CHANNELS 3 Xrotation Yrotation Zrotation
											JOINT LeftHandThumb4
											{
												OFFSET 3.941010 -2.275345 2.275342
												CHANNELS 3 Xrotation Yrotation Zrotation
												End Site
												{
													OFFSET -0.005798 5.087799 0.009903
												}
											}
										}
									}
								}
								JOINT LeftHandIndex1
								{
									OFFSET 24.424698 -1.985611 5.953459
									CHANNELS 3 Xrotation Yrotation Zrotation
									JOINT LeftHandIndex2
									{
										OFFSET 6.426697 0.000000 0.000000
										CHANNELS 3 Xrotation Yrotation Zrotation
										JOINT LeftHandIndex3
										{
											OFFSET 5.337898 0.000000 0.000000
											CHANNELS 3 Xrotation Yrotation Zrotation
											JOINT LeftHandIndex4
											{
												OFFSET 4.409401 0.000000 0.000000
												CHANNELS 3 Xrotation Yrotation Zrotation
												End Site
												{
													OFFSET 0.000000 4.409363 0.014373
												}
											}
										}
									}
								}
								JOINT LeftHandMiddle1
								{
									OFFSET 23.810104 0.000000 0.000000
									CHANNELS 3 Xrotation Yrotation Zrotation
									JOINT LeftHandMiddle2
									{
										OFFSET 7.176498 0.000000 0.000000
										CHANNELS 3 Xrotation Yrotation Zrotation
										JOINT LeftHandMiddle3
										{
											OFFSET 6.774902 0.000000 0.000000
											CHANNELS 3 Xrotation Yrotation Zrotation
											JOINT LeftHandMiddle4
											{
												OFFSET 5.403328 0.000000 0.000000
												CHANNELS 3 Xrotation Yrotation Zrotation
												End Site
												{
													OFFSET -0.027702 5.403244 0.017414
												}
											}
										}
									}
								}
								JOINT LeftHandRing1
								{
									OFFSET 22.908401 -0.839279 -6.020567
									CHANNELS 3 Xrotation Yrotation Zrotation
									JOINT LeftHandRing2
									{
										OFFSET 6.337502 0.000000 0.000000
										CHANNELS 3 Xrotation Yrotation Zrotation
										JOINT LeftHandRing3
										{
											OFFSET 5.779297 0.000000 0.000000
											CHANNELS 3 Xrotation Yrotation Zrotation
											JOINT LeftHandRing4
											{
												OFFSET 4.965698 0.000000 0.000000
												CHANNELS 3 Xrotation Yrotation Zrotation
												End Site
												{
													OFFSET 0.000000 4.965668 0.016186
												}
											}
										}
									}
								}
								JOINT LeftHandPinky1
								{
									OFFSET 20.037003 -1.530319 -10.950146
									CHANNELS 3 Xrotation Yrotation Zrotation
									JOINT LeftHandPinky2
									{
										OFFSET 5.254700 0.000000 0.000000
										CHANNELS 3 Xrotation Yrotation Zrotation
										JOINT LeftHandPinky3
										{
											OFFSET 4.810204 0.000000 0.000000
											CHANNELS 3 Xrotation Yrotation Zrotation
											JOINT LeftHandPinky4
											{
												OFFSET 3.647202 0.000000 0.000000
												CHANNELS 3 Xrotation Yrotation Zrotation
												End Site
												{
													OFFSET 0.000000 3.647186 0.011889
												}
											}
										}
									}
								}
							}
						}
					}
				}
				JOINT RightShoulder
				{
					OFFSET -15.141001 14.495407 -7.737500
					CHANNELS 3 Xrotation Yrotation Zrotation
					JOINT RightArm
					{
						OFFSET -9.308998 -2.777710 0.208500
						CHANNELS 3 Xrotation Yrotation Zrotation
						JOINT RightForeArm
						{
							OFFSET -29.972300 0.000000 0.000000
							CHANNELS 3 Xrotation Yrotation Zrotation
							JOINT RightHand
							{
								OFFSET -26.026505 0.000000 0.000000
								CHANNELS 3 Xrotation Yrotation Zrotation
								JOINT RightHandThumb1
								{
									OFFSET -12.240601 -7.148026 9.207092
									CHANNELS 3 Xrotation Yrotation Zrotation
									JOINT RightHandThumb2
									{
										OFFSET -4.138618 -2.389435 2.389433
										CHANNELS 3 Xrotation Yrotation Zrotation
										JOINT RightHandThumb3
										{
											OFFSET -2.726974 -1.574417 1.574421
											CHANNELS 3 Xrotation Yrotation Zrotation
											JOINT RightHandThumb4
											{
												OFFSET -3.941010 -2.275345 2.275343
												CHANNELS 3 Xrotation Yrotation Zrotation
												End Site
												{
													OFFSET 0.005814 5.087799 0.009927
												}
											}
										}
									}
								}
								JOINT RightHandIndex1
								{
									OFFSET -24.424698 -1.985657 5.953444
									CHANNELS 3 Xrotation Yrotation Zrotation
									JOINT RightHandIndex2
									{
										OFFSET -6.426697 0.000000 0.000000
										CHANNELS 3 Xrotation Yrotation Zrotation
										JOINT RightHandIndex3
										{
											OFFSET -5.337898 0.000000 0.000000
											CHANNELS 3 Xrotation Yrotation Zrotation
											JOINT RightHandIndex4
											{
												OFFSET -4.409401 0.000000 0.000000
												CHANNELS 3 Xrotation Yrotation Zrotation
												End Site
												{
													OFFSET 0.000000 4.409363 0.014408
												}
											}
										}
									}
								}
								JOINT RightHandMiddle1
								{
									OFFSET -23.810097 0.000000 0.000000
									CHANNELS 3 Xrotation Yrotation Zrotation
									JOINT RightHandMiddle2
									{
										OFFSET -7.176498 0.000000 0.000000
										CHANNELS 3 Xrotation Yrotation Zrotation
										JOINT RightHandMiddle3
										{
											OFFSET -6.774902 0.000000 0.000000
											CHANNELS 3 Xrotation Yrotation Zrotation
											JOINT RightHandMiddle4
											{
												OFFSET -5.403328 0.000000 0.000000
												CHANNELS 3 Xrotation Yrotation Zrotation
												End Site
												{
													OFFSET 0.027702 5.403244 0.017457
												}
											}
										}
									}
								}
								JOINT RightHandRing1
								{
									OFFSET -22.908302 -0.839325 -6.020576
									CHANNELS 3 Xrotation Yrotation Zrotation
									JOINT RightHandRing2
									{
										OFFSET -6.337502 0.000000 0.000000
										CHANNELS 3 Xrotation Yrotation Zrotation
										JOINT RightHandRing3
										{
											OFFSET -5.779297 0.000000 0.000000
											CHANNELS 3 Xrotation Yrotation Zrotation
											JOINT RightHandRing4
											{
												OFFSET -4.965698 0.000000 0.000000
												CHANNELS 3 Xrotation Yrotation Zrotation
												End Site
												{
													OFFSET 0.000000 4.965668 0.016226
												}
											}
										}
									}
								}
								JOINT RightHandPinky1
								{
									OFFSET -20.037003 -1.530334 -10.950259
									CHANNELS 3 Xrotation Yrotation Zrotation
									JOINT RightHandPinky2
									{
										OFFSET -5.254700 0.000000 0.000000
										CHANNELS 3 Xrotation Yrotation Zrotation
										JOINT RightHandPinky3
										{
											OFFSET -4.810204 0.000000 0.000000
											CHANNELS 3 Xrotation Yrotation Zrotation
											JOINT RightHandPinky4
											{
												OFFSET -3.647202 0.000000 0.000000
												CHANNELS 3 Xrotation Yrotation Zrotation
												End Site
												{
													OFFSET 0.000000 3.647186 0.011917
												}
											}
										}
									}
								}
							}
						}
					}
				}
			}
		}
	}
	JOINT LeftUpLeg
	{
		OFFSET 15.427100 -6.655098 0.678600
		CHANNELS 3 Xrotation Yrotation Zrotation
		JOINT LeftLeg
		{
			OFFSET 4.081073 -39.591068 13.024000
			CHANNELS 3 Xrotation Yrotation Zrotation
			JOINT LeftFoot
			{
				OFFSET -4.081074 -37.707932 -15.979700
				CHANNELS 3 Xrotation Yrotation Zrotation
				JOINT LeftToeBase
				{
					OFFSET 5.346399 -15.068900 20.645000
					CHANNELS 3 Xrotation Yrotation Zrotation
					JOINT LeftToe_End
					{
						OFFSET 2.754700 0.931300 11.300900
						CHANNELS 3 Xrotation Yrotation Zrotation
						End Site
						{
							OFFSET 0.000000 11.669021 0.000000
						}
					}
				}
			}
		}
	}
	JOINT RightUpLeg
	{
		OFFSET -15.569500 -6.655098 0.678600
		CHANNELS 3 Xrotation Yrotation Zrotation
		JOINT RightLeg
		{
			OFFSET -4.081825 -39.591045 13.023800
			CHANNELS 3 Xrotation Yrotation Zrotation
			JOINT RightFoot
			{
				OFFSET 4.081824 -37.707954 -15.979600
				CHANNELS 3 Xrotation Yrotation Zrotation
				JOINT RightToeBase
				{
					OFFSET -5.346400 -15.068900 20.645000
					CHANNELS 3 Xrotation Yrotation Zrotation
					JOINT RightToe_End
					{
						OFFSET -2.754700 0.931300 11.300900
						CHANNELS 3 Xrotation Yrotation Zrotation
						End Site
						{
							OFFSET 0.000000 11.669021 0.000000
						}
					}
				}
			}
		}
	}
}
MOTION
Frames: 4
Frame Time: 0.033333
-9.766104 115.404449 100.838623 -4.860892 9.158829 4.185751 6.312068 -0.219799 -1.746665 12.563164 -2.621199 -4.475702 12.563161 -2.621200 -4.475701 -48.873671 15.282912 -13.805861 24.557860 2.631850 9.730695 0.000000 -0.000001 0.000003 -0.887992 1.256912 25.134970 -54.838899 -0.053520 -42.948592 18.634264 -75.740077 38.942935 29.862007 -12.429275 48.523682 -11.360198 -10.015395 28.397693 19.621113 23.755275 -10.341712 0.000006 -0.000006 0.000002 0.000000 -0.000001 -0.000002 -7.847210 -3.444997 -67.091227 -4.890345 2.724777 -36.316563 -0.000000 0.000000 0.000001 0.000000 0.000000 -0.000002 -10.129919 -3.870849 -67.774294 -1.002694 1.301302 -28.178019 -0.000001 0.000006 0.000000 -0.000000 0.000001 -0.000000 -15.177616 7.295107 -70.201641 7.766221 -0.421181 -31.520053 -0.000004 0.000011 0.000007 -0.000000 0.000000 -0.000001 -16.482336 5.436017 -74.872800 8.342209 -0.186059 -18.883185 -0.000001 0.000001 -0.000001 0.000000 -0.000000 0.000000 3.625389 13.840908 -30.241393 -41.269301 -11.908121 11.056004 -180.322171 67.164242 162.972289 -13.806045 -2.305905 34.776919 4.414848 -0.933112 -6.002042 -5.283796 -2.143793 -6.171820 -0.000000 0.000008 -0.000012 0.000000 -0.000000 -0.000000 1.428442 -0.931094 5.256671 2.163212 4.057228 2.589207 0.000000 0.000002 0.000003 0.000000 0.000002 -0.000001 -3.163709 -5.460253 6.589572 6.439103 1.811426 14.152590 -0.000003 0.000001 -0.000003 -0.000001 -0.000002 -0.000001 0.639331 -10.669662 5.773132 -0.196696 -0.623118 26.921553 0.000005 -0.000000 0.000002 0.000001 -0.000000 0.000001 -8.495103 -19.634277 15.669137 16.709691 3.465600 26.649855 0.000002 0.000000 -0.000001 0.000001 0.000000 -0.000001 -98.983334 3.721340 18.999607 100.233026 -31.049941 -0.781226 -21.588179 5.690818 -15.392388 -33.223194 -0.463505 1.548695 0.000001 -0.000002 0.000001 -51.614698 0.882136 -31.803564 67.345296 2.449480 12.876554 18.299359 -0.433811 13.271917 -0.000049 0.000006 0.001174 0.000001 0.000001 -0.000002 
-8.424421 111.733200 99.472641 -6.021043 4.605327 4.349276 6.508631 -0.556322 -1.741384 12.967273 -2.315793 -4.136129 12.967268 -2.315793 -4.136130 -45.240414 14.410031 -12.991284 23.062974 2.993283 8.674017 -0.000000 0.000001 -0.000002 -1.732735 3.532467 27.109499 -55.694162 0.719480 -43.908875 8.487960 -73.246293 30.851807 30.536403 -12.211354 47.205848 -11.360195 -10.015399 28.397707 19.621112 23.755266 -10.341702 0.000007 -0.000005 0.000002 0.000001 -0.000004 -0.000002 -7.847209 -3.444991 -67.091234 -4.890349 2.724768 -36.316570 -0.000000 0.000000 0.000001 0.000000 0.000000 -0.000002 -10.129921 -3.870851 -67.774280 -1.002697 1.301297 -28.178021 -0.000001 0.000006 -0.000000 -0.000001 0.000001 0.000001 -15.177618 7.295124 -70.201654 7.766216 -0.421209 -31.520059 -0.000005 0.000010 0.000009 0.000001 -0.000001 -0.000000 -16.482327 5.436032 -74.872814 8.342209 -0.186074 -18.883182 -0.000000 -0.000000 0.000000 0.000001 -0.000001 0.000001 4.455437 16.301005 -24.007570 -47.622329 -4.952737 6.552052 -179.889725 72.569606 159.330650 -11.476681 -3.536776 36.339827 5.728366 -0.605322 -6.559464 -5.850027 -2.293389 -6.569501 -0.000001 0.000007 -0.000013 0.000000 -0.000002 -0.000001 2.187617 -0.817599 3.648408 0.991010 5.440900 11.124141 0.000001 -0.000002 0.000002 0.000000 0.000003 -0.000002 -3.782306 -5.376619 5.172716 7.132634 2.189263 16.995693 -0.000005 0.000005 0.000001 -0.000001 -0.000001 0.000001 0.866810 -9.456236 9.559422 -0.166718 -0.848760 29.865135 0.000003 -0.000001 0.000006 0.000004 0.000002 0.000001 -10.204318 -17.484087 17.843147 18.835997 3.915431 28.308103 0.000004 0.000001 0.000001 0.000004 0.000001 0.000001 -90.865387 3.770139 24.483839 95.194327 -31.996591 -3.365354 -22.981126 4.279795 -12.478347 -36.494886 -0.554788 1.679366 -0.000000 -0.000000 -0.000000 -62.537349 5.481310 -35.235887 79.531857 0.351524 12.986508 19.566089 -0.169836 11.135100 -1.437572 0.000869 -0.070129 0.000003 -0.000002 -0.000000 
-6.868289 107.498276 99.057243 -7.905880 0.279770 4.418294 6.584692 -0.734115 -1.600974 13.146465 -1.416023 -3.375204 13.146467 -1.416023 -3.375204 -37.095106 12.625763 -13.778846 19.109379 2.084408 7.579275 0.000000 0.000001 -0.000000 -0.899682 0.896483 28.096499 -54.815267 2.092644 -40.470742 -1.121425 -69.917539 23.235151 30.178330 -11.363635 45.953892 -11.360186 -10.015392 28.397703 19.621102 23.755270 -10.341694 0.000007 -0.000006 -0.000001 -0.000000 -0.000000 -0.000003 -7.847203 -3.444982 -67.091254 -4.890348 2.724769 -36.316570 0.000000 0.000000 0.000000 -0.000000 -0.000000 -0.000002 -10.129916 -3.870844 -67.774294 -1.002696 1.301318 -28.178014 -0.000001 0.000006 0.000000 0.000000 -0.000001 -0.000000 -15.177594 7.295121 -70.201654 7.766211 -0.421208 -31.520053 -0.000005 0.000011 0.000009 0.000000 -0.000000 0.000001 -16.482334 5.436022 -74.872793 8.342208 -0.186063 -18.883182 0.000000 -0.000001 -0.000000 -0.000000 -0.000000 -0.000000 4.612828 18.834609 -19.213486 -51.653579 7.500699 0.551114 -173.978333 80.211385 155.441459 -5.389751 -6.902660 21.353850 7.057009 -0.284575 -7.118842 -6.435079 -2.435640 -6.994805 0.000000 0.000006 -0.000011 0.000001 0.000002 -0.000000 1.893369 -0.154447 18.889134 1.882245 6.714441 26.649337 0.000001 -0.000003 0.000003 -0.000000 0.000001 0.000001 -4.875137 -3.582676 16.323840 7.670886 3.033564 24.735404 -0.000004 0.000001 0.000002 0.000000 0.000000 0.000000 1.219047 -6.433521 18.825492 -0.092607 -1.120401 32.826634 0.000004 0.000003 0.000007 0.000002 0.000002 0.000001 -12.317170 -14.500667 24.426845 21.127961 4.118743 28.744257 0.000001 0.000001 -0.000002 -0.000003 -0.000001 -0.000001 -83.402060 6.029651 30.237292 91.656911 -33.276627 -5.436438 -24.054808 2.364239 -7.769974 -39.432359 -0.642829 1.792012 0.000003 -0.000001 0.000000 -75.503834 10.248967 -37.624059 91.180819 1.482483 12.423634 20.379275 0.457670 8.162278 -5.727479 0.014031 -0.281145 0.000002 -0.000005 0.000002 
-5.405087 102.971512 99.797150 -10.175911 -2.967016 4.254215 6.578531 -0.906008 -1.297070 13.153362 -0.315989 -2.634598 13.153363 -0.315989 -2.634599 -27.017641 8.623078 -10.702727 12.854629 1.700040 4.294015 0.000000 0.000001 -0.000001 0.700889 -3.762291 30.292992 -52.853677 3.123451 -35.466092 -9.783050 -64.784870 16.231321 28.770905 -10.346533 45.396118 -11.360206 -10.015397 28.397700 19.621105 23.755258 -10.341691 0.000007 -0.000005 0.000002 0.000000 -0.000002 -0.000001 -7.847209 -3.444990 -67.091213 -4.890342 2.724791 -36.316570 0.000000 0.000000 0.000001 -0.000000 0.000000 -0.000002 -10.129924 -3.870854 -67.774266 -1.002698 1.301305 -28.178024 -0.000001 0.000006 -0.000000 -0.000001 0.000000 -0.000001 -15.177631 7.295102 -70.201634 7.766216 -0.421190 -31.520056 -0.000004 0.000011 0.000009 -0.000000 0.000000 0.000002 -16.482326 5.436017 -74.872800 8.342206 -0.186080 -18.883180 -0.000001 0.000001 0.000000 0.000000 0.000000 0.000000 5.208749 20.114689 -20.817715 -50.227835 11.752495 -0.026996 -182.561749 84.781649 167.838416 0.886802 -14.193139 -4.198654 8.633991 0.082864 -7.775376 -7.150016 -2.591324 -7.537814 -0.000002 0.000004 -0.000013 0.000001 0.000002 0.000002 1.311209 0.075702 32.651818 2.421499 7.906820 30.756369 -0.000001 0.000005 0.000002 0.000001 -0.000000 0.000000 -5.856464 -2.997399 30.538503 8.129250 4.251182 34.186053 -0.000003 -0.000000 0.000000 0.000001 -0.000002 0.000001 0.317927 -2.563461 32.427191 0.019442 -1.399882 35.563979 0.000003 -0.000002 0.000001 -0.000002 -0.000000 0.000001 -15.196578 -13.881094 40.736331 23.218950 4.098182 28.482379 -0.000000 0.000003 0.000001 -0.000002 0.000001 0.000001 -77.557795 9.259192 35.671974 89.896771 -35.456284 -7.104672 -24.953135 0.351671 -2.046969 -41.951459 -0.720974 1.875228 0.000002 0.000000 -0.000000 -91.488362 15.851508 -38.734959 101.781532 4.692917 11.418440 19.614801 1.362982 6.477950 -11.359584 0.055234 -0.555288 0.000001 0.000002 -0.000000 
